<svg xmlns="http://www.w3.org/2000/svg" xmlns:xlink="http://www.w3.org/1999/xlink" width="500" zoomAndPan="magnify" viewBox="0 0 375 374.999991" height="500" preserveAspectRatio="xMidYMid meet" version="1.0"><defs><g/></defs><rect x="-37.5" width="450" fill="#ffffff" y="-37.499999" height="449.999989" fill-opacity="1"/><rect x="-37.5" width="450" fill="#ffffff" y="-37.499999" height="449.999989" fill-opacity="1"/><g fill="#f0f8ff" fill-opacity="1"><g transform="translate(162.327759, 293.347485)"><g><path d="M 108.96875 -119.96875 C 105.664062 -116.476562 101.90625 -113.910156 97.6875 -112.265625 C 115.664062 -109.691406 129.332031 -103.316406 138.6875 -93.140625 C 148.039062 -82.960938 152.71875 -70.535156 152.71875 -55.859375 C 152.71875 -38.066406 145.5625 -23.664062 131.25 -12.65625 C 116.945312 -1.644531 98.144531 3.859375 74.84375 3.859375 C 51.550781 3.859375 33.300781 -1.875 20.09375 -13.34375 C 6.882812 -24.8125 0.28125 -41 0.28125 -61.90625 C 0.28125 -63.007812 0.28125 -64.113281 0.28125 -65.21875 L 3.3125 -65.765625 C 6.976562 -38.429688 18.347656 -20.726562 37.421875 -12.65625 L 37.421875 -172.796875 C 37.054688 -177.753906 35.175781 -181.835938 31.78125 -185.046875 C 28.394531 -188.253906 24.316406 -189.859375 19.546875 -189.859375 L 16.234375 -189.859375 L 16.234375 -192.609375 L 62.46875 -192.609375 C 79.707031 -192.609375 93.507812 -188.664062 103.875 -180.78125 C 114.238281 -172.894531 119.421875 -162.578125 119.421875 -149.828125 C 119.421875 -137.078125 115.9375 -127.125 108.96875 -119.96875 Z M 55.3125 -183.796875 L 55.3125 -7.703125 C 61.363281 -6.785156 68.332031 -6.328125 76.21875 -6.328125 C 93.832031 -6.328125 107.546875 -11.050781 117.359375 -20.5 C 127.171875 -29.945312 132.078125 -42.191406 132.078125 -57.234375 C 132.078125 -65.304688 130.5625 -72.457031 127.53125 -78.6875 C 124.507812 -84.925781 120.707031 -89.789062 116.125 -93.28125 C 104.019531 -102.632812 86.957031 -107.3125 64.9375 -107.3125 C 64.757812 -107.3125 64.671875 -107.3125 64.671875 -107.3125 L 64.390625 -109.78125 C 64.578125 -109.78125 64.671875 -109.78125 64.671875 -109.78125 C 74.023438 -109.78125 82.046875 -112.851562 88.734375 -119 C 95.429688 -125.144531 98.78125 -134.640625 98.78125 -147.484375 C 98.78125 -171.691406 85.484375 -183.796875 58.890625 -183.796875 Z M 55.3125 -183.796875 "/></g></g></g><g fill="#f0f8ff" fill-opacity="1"><g transform="translate(49.758409, 248.006134)"><g><path d="M 260.84375 46.78125 C 253.144531 48.789062 246.3125 49.796875 240.34375 49.796875 C 234.382812 49.796875 229.113281 49.429688 224.53125 48.703125 C 219.945312 47.972656 215.039062 46.550781 209.8125 44.4375 C 204.582031 42.332031 199.671875 39.898438 195.078125 37.140625 C 190.492188 34.390625 185.910156 31 181.328125 26.96875 C 172.890625 20.175781 165.226562 12.835938 158.34375 4.953125 C 151.46875 -2.929688 138.21875 -17.742188 118.59375 -39.484375 C 98.96875 -61.222656 85.941406 -75.664062 79.515625 -82.8125 C 73.097656 -89.96875 68.144531 -93.734375 64.65625 -94.109375 L 64.65625 -96.859375 C 75.300781 -96.859375 82.410156 -97.085938 85.984375 -97.546875 C 89.566406 -98.003906 93.375 -98.828125 97.40625 -100.015625 C 101.4375 -101.210938 104.832031 -102.816406 107.59375 -104.828125 C 118.414062 -111.804688 123.828125 -123.363281 123.828125 -139.5 C 123.828125 -152.894531 120.84375 -163.625 114.875 -171.6875 C 108.914062 -179.757812 100.523438 -183.890625 89.703125 -184.078125 L 55.578125 -184.078125 L 55.578125 -20.09375 C 55.578125 -15.5 57.273438 -11.457031 60.671875 -7.96875 C 64.066406 -4.488281 68.238281 -2.75 73.1875 -2.75 L 76.5 -2.75 L 76.765625 0 L 16.515625 0 L 16.515625 -2.75 L 20.09375 -2.75 C 24.675781 -2.75 28.707031 -4.398438 32.1875 -7.703125 C 35.675781 -11.003906 37.515625 -15.039062 37.703125 -19.8125 L 37.703125 -172.515625 C 37.515625 -177.285156 35.722656 -181.367188 32.328125 -184.765625 C 28.929688 -188.160156 24.851562 -189.859375 20.09375 -189.859375 L 16.515625 -189.859375 L 16.515625 -192.609375 L 90.796875 -192.609375 C 106.941406 -192.609375 119.921875 -188.066406 129.734375 -178.984375 C 139.546875 -169.910156 144.453125 -157.894531 144.453125 -142.9375 C 144.453125 -127.988281 139.957031 -115.148438 130.96875 -104.421875 C 121.976562 -93.691406 110.972656 -88.328125 97.953125 -88.328125 C 97.953125 -88.328125 97.863281 -88.328125 97.6875 -88.328125 C 103.914062 -81.722656 110.976562 -74.019531 118.875 -65.21875 C 150.601562 -30.175781 170.960938 -8.160156 179.953125 0.828125 C 188.941406 9.816406 196.875 17.195312 203.75 22.96875 C 210.632812 28.75 216.734375 33.015625 222.046875 35.765625 C 232.867188 41.640625 243.601562 44.578125 254.25 44.578125 C 256.445312 44.578125 258.644531 44.394531 260.84375 44.03125 Z M 260.84375 46.78125 "/></g></g></g><g fill="#f0f8ff" fill-opacity="1"><g transform="translate(32.244033, 319.108748)"><g><path d="M 0.84375 -3.28125 L 0.84375 -4.703125 L 8.65625 -8.109375 L 8.65625 -6.3125 L 3.234375 -3.984375 L 8.65625 -1.640625 L 8.65625 0.140625 Z M 0.84375 -3.28125 "/></g></g></g><g fill="#f0f8ff" fill-opacity="1"><g transform="translate(53.786122, 319.108748)"><g/></g></g><g fill="#f0f8ff" fill-opacity="1"><g transform="translate(69.680352, 319.108748)"><g><path d="M 10.03125 -1.96875 L 10.515625 -0.359375 C 10.296875 -0.203125 10.035156 -0.0820312 9.734375 0 C 9.429688 0.09375 9.109375 0.140625 8.765625 0.140625 C 7.585938 0.140625 6.660156 -0.378906 5.984375 -1.421875 L 4.359375 -3.921875 C 4.179688 -4.191406 4.003906 -4.378906 3.828125 -4.484375 C 3.648438 -4.585938 3.457031 -4.640625 3.25 -4.640625 L 3.171875 -4.640625 L 3.171875 0 L 1.15625 0 L 1.15625 -11.234375 L 4.65625 -11.234375 C 6.082031 -11.234375 7.160156 -10.9375 7.890625 -10.34375 C 8.617188 -9.757812 8.984375 -8.953125 8.984375 -7.921875 C 8.984375 -7.296875 8.847656 -6.757812 8.578125 -6.3125 C 8.304688 -5.863281 7.929688 -5.503906 7.453125 -5.234375 C 6.984375 -4.972656 6.445312 -4.804688 5.84375 -4.734375 C 6.15625 -4.566406 6.445312 -4.28125 6.71875 -3.875 L 7.59375 -2.5625 C 7.832031 -2.226562 8.050781 -1.992188 8.25 -1.859375 C 8.457031 -1.734375 8.71875 -1.671875 9.03125 -1.671875 C 9.40625 -1.671875 9.738281 -1.769531 10.03125 -1.96875 Z M 4.515625 -9.5625 L 3.171875 -9.5625 L 3.171875 -6.25 L 4.421875 -6.25 C 5.285156 -6.25 5.921875 -6.378906 6.328125 -6.640625 C 6.742188 -6.910156 6.953125 -7.335938 6.953125 -7.921875 C 6.953125 -9.015625 6.140625 -9.5625 4.515625 -9.5625 Z M 4.515625 -9.5625 "/></g></g></g><g fill="#f0f8ff" fill-opacity="1"><g transform="translate(91.649592, 319.108748)"><g><path d="M 1.15625 0 L 1.15625 -11.234375 L 4.890625 -11.234375 C 6.316406 -11.234375 7.410156 -10.972656 8.171875 -10.453125 C 8.941406 -9.929688 9.328125 -9.171875 9.328125 -8.171875 C 9.328125 -7.628906 9.191406 -7.140625 8.921875 -6.703125 C 8.660156 -6.273438 8.285156 -5.941406 7.796875 -5.703125 C 8.316406 -5.492188 8.726562 -5.171875 9.03125 -4.734375 C 9.34375 -4.296875 9.5 -3.789062 9.5 -3.21875 C 9.5 -2.226562 9.132812 -1.441406 8.40625 -0.859375 C 7.675781 -0.285156 6.675781 0 5.40625 0 Z M 4.921875 -9.5625 L 3.171875 -9.5625 L 3.171875 -6.5 L 4.890625 -6.5 C 5.691406 -6.5 6.285156 -6.625 6.671875 -6.875 C 7.066406 -7.125 7.265625 -7.523438 7.265625 -8.078125 C 7.265625 -8.578125 7.078125 -8.945312 6.703125 -9.1875 C 6.328125 -9.4375 5.734375 -9.5625 4.921875 -9.5625 Z M 3.171875 -1.671875 L 5.359375 -1.671875 C 6.003906 -1.671875 6.515625 -1.796875 6.890625 -2.046875 C 7.265625 -2.304688 7.453125 -2.710938 7.453125 -3.265625 C 7.453125 -4.285156 6.738281 -4.796875 5.3125 -4.796875 L 3.171875 -4.796875 Z M 3.171875 -1.671875 "/></g></g></g><g fill="#f0f8ff" fill-opacity="1"><g transform="translate(113.713759, 319.108748)"><g><path d="M 8.390625 -9.46875 L 3.171875 -9.46875 L 3.171875 -6.5625 L 8.140625 -6.5625 L 8.140625 -4.796875 L 3.171875 -4.796875 L 3.171875 -1.765625 L 8.578125 -1.765625 L 8.4375 0 L 1.15625 0 L 1.15625 -11.234375 L 8.390625 -11.234375 Z M 8.390625 -9.46875 "/></g></g></g><g fill="#f0f8ff" fill-opacity="1"><g transform="translate(134.702137, 319.108748)"><g><path d="M 9.3125 -11.234375 L 9.046875 -9.4375 L 5.578125 -9.4375 L 5.578125 0 L 3.515625 0 L 3.515625 -9.4375 L -0.09375 -9.4375 L -0.09375 -11.234375 Z M 9.3125 -11.234375 "/></g></g></g><g fill="#f0f8ff" fill-opacity="1"><g transform="translate(155.832892, 319.108748)"><g><path d="M 9.3125 -11.234375 L 9.046875 -9.4375 L 5.578125 -9.4375 L 5.578125 0 L 3.515625 0 L 3.515625 -9.4375 L -0.09375 -9.4375 L -0.09375 -11.234375 Z M 9.3125 -11.234375 "/></g></g></g><g fill="#f0f8ff" fill-opacity="1"><g transform="translate(176.963648, 319.108748)"><g><path d="M -0.15625 0 L 4.640625 -11.234375 L 6.375 -11.234375 L 10.984375 0 L 8.890625 0 L 7.875 -2.5625 L 2.96875 -2.5625 L 1.9375 0 Z M 3.6875 -4.296875 L 7.21875 -4.296875 L 5.46875 -8.703125 Z M 3.6875 -4.296875 "/></g></g></g><g fill="#f0f8ff" fill-opacity="1"><g transform="translate(199.897921, 319.108748)"><g><path d="M 10.03125 -1.96875 L 10.515625 -0.359375 C 10.296875 -0.203125 10.035156 -0.0820312 9.734375 0 C 9.429688 0.09375 9.109375 0.140625 8.765625 0.140625 C 7.585938 0.140625 6.660156 -0.378906 5.984375 -1.421875 L 4.359375 -3.921875 C 4.179688 -4.191406 4.003906 -4.378906 3.828125 -4.484375 C 3.648438 -4.585938 3.457031 -4.640625 3.25 -4.640625 L 3.171875 -4.640625 L 3.171875 0 L 1.15625 0 L 1.15625 -11.234375 L 4.65625 -11.234375 C 6.082031 -11.234375 7.160156 -10.9375 7.890625 -10.34375 C 8.617188 -9.757812 8.984375 -8.953125 8.984375 -7.921875 C 8.984375 -7.296875 8.847656 -6.757812 8.578125 -6.3125 C 8.304688 -5.863281 7.929688 -5.503906 7.453125 -5.234375 C 6.984375 -4.972656 6.445312 -4.804688 5.84375 -4.734375 C 6.15625 -4.566406 6.445312 -4.28125 6.71875 -3.875 L 7.59375 -2.5625 C 7.832031 -2.226562 8.050781 -1.992188 8.25 -1.859375 C 8.457031 -1.734375 8.71875 -1.671875 9.03125 -1.671875 C 9.40625 -1.671875 9.738281 -1.769531 10.03125 -1.96875 Z M 4.515625 -9.5625 L 3.171875 -9.5625 L 3.171875 -6.25 L 4.421875 -6.25 C 5.285156 -6.25 5.921875 -6.378906 6.328125 -6.640625 C 6.742188 -6.910156 6.953125 -7.335938 6.953125 -7.921875 C 6.953125 -9.015625 6.140625 -9.5625 4.515625 -9.5625 Z M 4.515625 -9.5625 "/></g></g></g><g fill="#f0f8ff" fill-opacity="1"><g transform="translate(221.867156, 319.108748)"><g><path d="M 8.390625 -9.46875 L 3.171875 -9.46875 L 3.171875 -6.5625 L 8.140625 -6.5625 L 8.140625 -4.796875 L 3.171875 -4.796875 L 3.171875 -1.765625 L 8.578125 -1.765625 L 8.4375 0 L 1.15625 0 L 1.15625 -11.234375 L 8.390625 -11.234375 Z M 8.390625 -9.46875 "/></g></g></g><g fill="#f0f8ff" fill-opacity="1"><g transform="translate(242.855534, 319.108748)"><g><path d="M 1.15625 0 L 1.15625 -11.234375 L 3.21875 -11.234375 L 3.21875 -1.796875 L 8.21875 -1.796875 L 8.078125 0 Z M 1.15625 0 "/></g></g></g><g fill="#f0f8ff" fill-opacity="1"><g transform="translate(263.037074, 319.108748)"><g><path d="M 1.15625 0 L 1.15625 -11.234375 L 3.21875 -11.234375 L 3.21875 -1.796875 L 8.21875 -1.796875 L 8.078125 0 Z M 1.15625 0 "/></g></g></g><g fill="#f0f8ff" fill-opacity="1"><g transform="translate(283.218615, 319.108748)"><g><path d="M 1.15625 0 L 1.15625 -11.234375 L 3.21875 -11.234375 L 3.21875 0 Z M 1.15625 0 "/></g></g></g><g fill="#f0f8ff" fill-opacity="1"><g transform="translate(299.634906, 319.108748)"><g/></g></g><g fill="#f0f8ff" fill-opacity="1"><g transform="translate(315.529146, 319.108748)"><g><path d="M 0 3.171875 L 3.953125 -11.71875 L 5.796875 -11.71875 L 1.84375 3.171875 Z M 0 3.171875 "/></g></g></g><g fill="#f0f8ff" fill-opacity="1"><g transform="translate(333.258532, 319.108748)"><g><path d="M 8.65625 -3.28125 L 0.84375 0.140625 L 0.84375 -1.640625 L 6.265625 -3.984375 L 0.84375 -6.3125 L 0.84375 -8.109375 L 8.65625 -4.703125 Z M 8.65625 -3.28125 "/></g></g></g></svg>